<?xml version="1.0" encoding="UTF-8"?>
<svg version="1.1" xmlns="http://www.w3.org/2000/svg" width="1340" height="492">
<path d="M0 0 C442.2 0 884.4 0 1340 0 C1340 162.36 1340 324.72 1340 492 C897.8 492 455.6 492 0 492 C0 329.64 0 167.28 0 0 Z " fill="#E4DBD0" transform="translate(0,0)"/>
<path d="M0 0 C8.58 0 17.16 0 26 0 C27.75533958 1.75533958 27.17046549 4.23613828 27.20532227 6.62133789 C27.22526749 7.82250748 27.24521271 9.02367706 27.26576233 10.26124573 C27.28247482 11.5685112 27.29918732 12.87577667 27.31640625 14.22265625 C27.33696958 15.56644847 27.35796588 16.91023412 27.37937927 18.25401306 C27.43466419 21.79674987 27.48404498 25.33954567 27.53222656 28.88238525 C27.58239487 32.4952115 27.63810525 36.10795172 27.69335938 39.72070312 C27.80101937 46.81372747 27.9024468 53.90682888 28 61 C28.47476776 60.51875168 28.94953552 60.03750336 29.43869019 59.54167175 C30.06462067 58.91070084 30.69055115 58.27972992 31.33544922 57.62963867 C31.95459198 57.00401535 32.57373474 56.37839203 33.2116394 55.73381042 C44.14658663 45.13241072 57.6487036 42.4121715 72.3293457 42.59741211 C88.8978068 43.12589018 102.47249765 48.95603249 114 61 C127.34090289 75.80660746 130.92466063 94.26154611 130.18798828 113.52978516 C129.46575106 123.02016978 126.48421655 132.63368785 122 141 C121.60425781 141.78375 121.20851563 142.5675 120.80078125 143.375 C113.38631985 156.97172004 101.61217879 166.1828141 86.86962891 170.64477539 C81.12353524 172.07401003 75.52837809 172.35021094 69.625 172.3125 C68.69961426 172.30686035 67.77422852 172.3012207 66.82080078 172.29541016 C53.09884804 172.05145359 41.67615162 167.56832039 31.33984375 158.39453125 C30 157 30 157 28 154 C27.93941406 155.07121094 27.87882813 156.14242187 27.81640625 157.24609375 C27.73201463 158.64324391 27.64736594 160.04037857 27.5625 161.4375 C27.52318359 162.14455078 27.48386719 162.85160156 27.44335938 163.58007812 C27.11328125 168.88671875 27.11328125 168.88671875 26 170 C17.42 170 8.84 170 0 170 C0 113.9 0 57.8 0 0 Z " fill="#526668" transform="translate(845,154)"/>
<path d="M0 0 C8.58 0 17.16 0 26 0 C26 20.46 26 40.92 26 62 C27.65 60.35 29.3 58.7 31 57 C38.51694781 51.08812991 45.72649454 46.60091639 55 44 C55.91664429 43.73956909 55.91664429 43.73956909 56.85180664 43.47387695 C71.0995902 40.33091208 87.59591256 42.67697933 100.25 49.6875 C114.72465783 59.19466442 125.0273304 73.2859524 128.60961914 90.38574219 C129.37496522 95.51102411 129.32750891 100.64043079 129.3125 105.8125 C129.32861328 106.91142578 129.34472656 108.01035156 129.36132812 109.14257812 C129.37237054 127.88154792 122.31009195 143.99516759 109.75 157.75 C96.3164001 170.50885287 80.23007156 172.50202827 62.63671875 172.27734375 C56.44223964 172.07353129 51.44327424 171.02092368 46 168 C45.14664063 167.55269531 44.29328125 167.10539063 43.4140625 166.64453125 C37.78257442 163.4905597 32.39717377 159.76565202 28 155 C28 154.34 28 153.68 28 153 C27.34 153 26.68 153 26 153 C26 158.61 26 164.22 26 170 C17.42 170 8.84 170 0 170 C0 113.9 0 57.8 0 0 Z " fill="#526567" transform="translate(690,154)"/>
<path d="M0 0 C0.93779297 -0.01224609 1.87558594 -0.02449219 2.84179688 -0.03710938 C17.1331466 -0.06690371 29.60819798 4.67137565 41.0625 13.1875 C42.073125 13.909375 43.08375 14.63125 44.125 15.375 C55.17868472 24.95486009 62.7701244 40.9629872 64.29443359 55.38134766 C65.69937358 76.20725621 60.91028662 94.14094443 47.25 110.125 C42.40739632 115.18332643 37.1737601 118.81799858 31.0625 122.1875 C30.37414062 122.58582031 29.68578125 122.98414063 28.9765625 123.39453125 C19.39926741 128.6131798 9.44485399 129.72045258 -1.3125 129.625 C-3.10204102 129.61364014 -3.10204102 129.61364014 -4.92773438 129.60205078 C-13.27695865 129.44535986 -20.31320228 128.81327714 -27.9375 125.1875 C-28.87980469 124.76339844 -29.82210937 124.33929688 -30.79296875 123.90234375 C-45.83322792 116.45482231 -56.24352857 103.23282894 -61.875 87.58203125 C-67.61804193 69.33130667 -66.23555627 50.15853068 -58.1875 32.875 C-50.05874277 17.73518965 -37.99981765 8.21970434 -22.078125 2.0859375 C-14.81204825 0.00733346 -7.5015692 0.00513454 0 0 Z " fill="#526668" transform="translate(599.9375,196.8125)"/>
<path d="M0 0 C11.44380392 9.48262472 19.957515 24.54596881 21.76171875 39.34375 C22.63609061 55.84626256 22.63609061 55.84626256 20.76171875 63.34375 C-26.26328125 63.83875 -26.26328125 63.83875 -74.23828125 64.34375 C-71.72558968 76.90720783 -69.34660741 82.85794524 -59.23828125 90.34375 C-50.46704089 95.69281925 -41.32999378 96.44093738 -31.23828125 95.34375 C-23.45074332 93.3902956 -17.08550256 89.83089948 -12.23828125 83.34375 C-11.24828125 81.36375 -11.24828125 81.36375 -10.23828125 79.34375 C-0.99828125 79.34375 8.24171875 79.34375 17.76171875 79.34375 C14.38352225 89.4783395 14.38352225 89.4783395 11.32421875 93.59375 C10.74800781 94.38265625 10.17179687 95.1715625 9.578125 95.984375 C8.67900391 97.15226562 8.67900391 97.15226562 7.76171875 98.34375 C7.12878906 99.18550781 6.49585938 100.02726562 5.84375 100.89453125 C-1.83866121 109.93181423 -14.57487006 116.41950497 -26.23828125 118.34375 C-30.63156924 118.58891531 -35.02631862 118.57485805 -39.42578125 118.59375 C-41.19791992 118.6246875 -41.19791992 118.6246875 -43.00585938 118.65625 C-50.29251902 118.68854544 -56.42933767 117.96603345 -63.23828125 115.34375 C-64.28757812 114.9415625 -65.336875 114.539375 -66.41796875 114.125 C-80.97948345 107.20300461 -91.87331531 95.27183807 -98.171875 80.4296875 C-104.87010942 61.04651831 -104.55538916 38.6004766 -95.61328125 20.09375 C-88.34640772 5.91110855 -77.0616075 -3.96459308 -62.23828125 -9.65625 C-61.45582031 -9.97722656 -60.67335938 -10.29820312 -59.8671875 -10.62890625 C-40.03518196 -17.45111616 -16.52386539 -12.22708364 0 0 Z " fill="#526668" transform="translate(1093.23828125,207.65625)"/>
<path d="M0 0 C3.17780873 2.26491095 6.23279037 4.46558074 8 8 C8.04022391 10.3329866 8.04320247 12.66706666 8 15 C8.88042969 14.94199219 9.76085937 14.88398438 10.66796875 14.82421875 C19.98124881 14.46243762 19.98124881 14.46243762 22.9765625 16.04296875 C24.3125 17.375 24.3125 17.375 26 20 C26 20.66 26 21.32 26 22 C27.06476563 21.71125 28.12953125 21.4225 29.2265625 21.125 C48.32248645 16.152011 48.32248645 16.152011 57 18 C61.56522155 21.44472537 62.77248871 24.38332318 63.6875 29.9375 C63.80287109 30.62207275 63.91824219 31.30664551 64.03710938 32.01196289 C65.11190565 38.79623909 65.70028516 45.6443207 66.1784668 52.49389648 C66.65814788 58.82985796 67.65986066 65.01687977 68.80247498 71.26075745 C70.28804962 79.43329736 71.42621603 87.64791009 72.5625 95.875 C73.75248305 104.46573747 74.94784933 113.03699182 76.55541992 121.56201172 C77.2856349 125.56636472 77.83571685 129.59116201 78.375 133.625 C78.4980249 134.53161377 78.6210498 135.43822754 78.74780273 136.37231445 C79.54950456 142.36904412 80.29337095 148.37174585 81.01171875 154.37890625 C81.09871033 155.10495056 81.1857019 155.83099487 81.27532959 156.57904053 C81.70716666 160.19025186 82.13432297 163.80192923 82.55419922 167.41455078 C83.35833813 174.24914765 84.26785791 181.01375139 85.64892578 187.7590332 C86.27894738 191.78056886 86.12896843 195.36299578 83.75 198.8125 C79.52371699 201.6803349 75.15222361 202.39652558 70.15234375 203 C69.49980118 203.08121094 68.84725861 203.16242188 68.17494202 203.24609375 C66.09651828 203.50377326 64.01714708 203.7524057 61.9375 204 C59.21700674 204.3297958 56.49700981 204.66345269 53.77734375 205 C52.77223 205.12422585 52.77223 205.12422585 51.74681091 205.2509613 C46.83980954 205.86828561 41.97224765 206.63235596 37.09936523 207.47314453 C30.76774984 208.54944434 24.41482479 209.49253125 18.0625 210.4375 C16.95559311 210.60232376 16.95559311 210.60232376 15.82632446 210.77047729 C4.46405751 212.45115261 -6.89756189 213.80503713 -18.33300781 214.89941406 C-28.36505265 215.87672401 -38.32066094 217.22649214 -48.28637695 218.73071289 C-67.30444914 221.51560407 -67.30444914 221.51560407 -74 217 C-81.21986747 211.29126758 -82.35492574 202.55884095 -83.5 193.875 C-83.6225415 192.9866748 -83.74508301 192.09834961 -83.87133789 191.18310547 C-85.0192142 182.52312223 -85.8190538 173.8313948 -86.62112427 165.13378906 C-87.52586661 155.35002693 -88.63692429 145.61578985 -89.9375 135.875 C-91.38304188 124.95585821 -92.75341478 114.03188917 -93.97952271 103.08575439 C-94.1558486 101.52231689 -94.33559481 99.95926019 -94.51925659 98.39666748 C-95.82798673 87.2215739 -96.20872687 76.24888723 -96 65 C-96.66 65 -97.32 65 -98 65 C-99.05732091 49.9289813 -99.05732091 49.9289813 -96.6875 45.60546875 C-90.93337718 40.53207921 -83.47660178 39.76866912 -76.0625 39.375 C-75.03672852 39.31699219 -75.03672852 39.31699219 -73.99023438 39.2578125 C-72.32720487 39.16477588 -70.66364153 39.08136213 -69 39 C-69 39.66 -69 40.32 -69 41 C-69.97839844 41.09796875 -70.95679688 41.1959375 -71.96484375 41.296875 C-83.86750829 42.30357128 -83.86750829 42.30357128 -94 48 C-94.79425499 58.47416829 -93.21379354 68.83875271 -91.8125 79.1875 C-91.58560933 80.91196347 -91.35921814 82.63649273 -91.13330078 84.36108398 C-89.57570242 96.15371288 -87.84373502 107.91727759 -86.05310059 119.67642212 C-84.57966378 129.39173784 -83.44075778 139.08431799 -82.5625 148.875 C-81.51234681 160.42590488 -79.9015052 171.81240326 -78 183.25 C-77.81124802 184.40239166 -77.81124802 184.40239166 -77.61868286 185.57806396 C-76.29329787 199.85694838 -76.29329787 199.85694838 -70.04956055 211.73168945 C-61.56754608 216.98053581 -45.24628045 211.56285303 -36.12890625 210.015625 C-30.00046336 208.97898235 -23.87101542 208.18150286 -17.6953125 207.4921875 C-14.89718192 207.1194978 -12.18533909 206.66536864 -9.41796875 206.1328125 C-0.0658865 204.3956776 9.38732904 203.26240405 18.8125 202 C22.67329628 201.48004905 26.53392649 200.95887091 30.39453125 200.4375 C31.78674896 200.24962418 31.78674896 200.24962418 33.20709229 200.05795288 C44.68837752 198.50581375 56.14753844 196.86171338 67.578125 194.96875 C68.35929688 194.84242188 69.14046875 194.71609375 69.9453125 194.5859375 C70.63125488 194.4729834 71.31719727 194.3600293 72.02392578 194.24365234 C74 194 74 194 78 194 C76.03953078 175.7421674 76.03953078 175.7421674 73.26635742 157.59619141 C69.823785 137.72963409 67.3274856 117.63830832 65.09375 97.60449219 C63.02143732 79.07592124 60.55330148 60.58507805 57.95117188 42.12402344 C57.24675062 37.06888477 56.72275099 32.03742036 56.36791992 26.94458008 C56.24650635 26.30286865 56.12509277 25.66115723 56 25 C48.62684723 21.31342362 35.99538481 24.26719877 28 25 C28.05800781 25.73605469 28.11601562 26.47210938 28.17578125 27.23046875 C28.54461573 35.20783166 28.54461573 35.20783166 25.9375 39 C18.89527503 43.79470636 13.83729599 44.22271365 5.3984375 44.62890625 C0.51303428 44.95912126 -4.20803734 45.90050755 -9 46.875 C-46.40048102 54.37980338 -46.40048102 54.37980338 -57 52 C-63.14198613 45.53309652 -64.35732368 38.76075906 -64.2109375 30.05078125 C-63.91337851 27.15784667 -63.23707382 25.86422819 -61 24 C-56.59888976 21.99949535 -52.79451797 21.80821928 -48 22 C-48 20.700625 -48 19.40125 -48 18.0625 C-47.2491044 11.6949053 -43.82891947 7.98910739 -39 4 C-26.4401264 -3.77515985 -13.4973694 -7.40323941 0 0 Z " fill="#5C6E6F" transform="translate(226,138)"/>
<path d="M0 0 C1.084021 0.00523682 2.16804199 0.01047363 3.28491211 0.01586914 C4.45473633 0.0190918 5.62456055 0.02231445 6.82983398 0.02563477 C8.0615332 0.03401367 9.29323242 0.04239258 10.56225586 0.05102539 C12.41560547 0.05779297 12.41560547 0.05779297 14.30639648 0.06469727 C17.37089703 0.07652931 20.43530307 0.09301366 23.49975586 0.11352539 C23.54649197 20.85402873 23.58175262 41.59452338 23.6033802 62.3350687 C23.61368951 71.96542179 23.62774325 81.59574214 23.65063477 91.22607422 C23.6705792 99.62059407 23.68347481 108.01509021 23.68793285 116.4096331 C23.69053844 120.8538077 23.69665556 125.29791448 23.71121597 129.74206734 C23.7248165 133.92725031 23.7289735 138.11233769 23.72597122 142.29754066 C23.72652028 143.83137278 23.730483 145.36520818 23.73816681 146.89902115 C23.74816689 148.99863867 23.74570654 151.09789864 23.74026489 153.19752502 C23.74210848 154.37096749 23.74395206 155.54440996 23.74585152 156.75341129 C23.17503272 164.5471948 20.22998431 173.29543289 14.67553711 178.98071289 C5.43033742 186.28242267 -4.44126009 187.28122326 -15.87524414 187.17602539 C-19.05149414 187.15540039 -22.22774414 187.13477539 -25.50024414 187.11352539 C-25.50024414 179.52352539 -25.50024414 171.93352539 -25.50024414 164.11352539 C-18.25024414 163.73852539 -18.25024414 163.73852539 -15.98754883 163.63549805 C-10.91972479 163.34821895 -10.91972479 163.34821895 -6.50024414 161.11352539 C-4.27278865 157.67475313 -4.24342919 154.75748951 -4.22850037 150.71687317 C-4.21878204 149.40021164 -4.20906372 148.08355011 -4.1990509 146.72698975 C-4.19828072 145.2696534 -4.1976917 143.81231695 -4.19726562 142.35498047 C-4.18960381 140.81908216 -4.18105732 139.28318806 -4.17169189 137.74729919 C-4.1534191 134.44173026 -4.14137696 131.13621785 -4.13415337 127.83060646 C-4.12267465 122.60858117 -4.09722347 117.38668128 -4.06983948 112.16471863 C-4.02819573 103.91060157 -3.99577519 95.65647853 -3.96736532 87.40230626 C-3.91636129 72.60618175 -3.8543614 57.81010899 -3.78202492 43.01407355 C-3.75704719 37.81765694 -3.73764117 32.62125709 -3.72264278 27.42480242 C-3.71247198 24.20054784 -3.69832678 20.97631933 -3.6831665 17.75208473 C-3.67698729 16.25121674 -3.67254135 14.75034053 -3.66990852 13.24946213 C-3.66612382 11.20937027 -3.65576209 9.16929369 -3.64500427 7.12922668 C-3.64114936 5.98494611 -3.63729445 4.84066553 -3.63332272 3.66170979 C-3.45573345 0.26123604 -3.39876901 0.15432356 0 0 Z " fill="#536668" transform="translate(486.500244140625,198.886474609375)"/>
<path d="M0 0 C7.67689893 6.24714091 12.12938749 14.63252882 14.328125 24.20703125 C14.61869366 27.31677867 14.66241097 30.39760124 14.640625 33.51953125 C14.63498535 34.36185303 14.6293457 35.2041748 14.62353516 36.07202148 C14.38823379 48.12248021 10.33265285 57.93523814 2.203125 66.95703125 C-6.02281183 74.70556996 -16.31569859 77.6881958 -27.3515625 77.5390625 C-37.99416599 76.47480215 -46.87434951 71.36897867 -53.671875 63.20703125 C-61.97494426 50.08783658 -63.90299124 34.93709148 -61.01953125 19.77734375 C-57.43450097 8.91454813 -49.64403009 0.6821771 -39.609375 -4.54296875 C-26.19115615 -11.24147926 -12.06700232 -8.09759366 0 0 Z " fill="#E3DBD0" transform="translate(933.671875,226.79296875)"/>
<path d="M0 0 C9.02163624 5.32956251 15.02064319 14.39618608 17.90234375 24.359375 C20.36426853 37.7699839 19.19857124 50.71744227 11.8515625 62.47265625 C5.81827208 70.62430197 -2.13262232 77.3024146 -12.2421875 79.46875 C-23.32994028 81.04437803 -33.17677092 79.1706888 -42.3046875 72.55859375 C-51.23261927 65.24220201 -56.53175517 56.70768142 -57.75097656 45.09765625 C-58.723299 30.55679403 -57.87091453 18.95516018 -48.28125 7.41015625 C-34.52039529 -6.85526313 -17.49030429 -8.60677948 0 0 Z " fill="#E3DAD0" transform="translate(774.46875,224.21484375)"/>
<path d="M0 0 C9.34154008 6.87223788 15.18157232 14.76169946 18 26 C18.39236803 29.30534291 18.43113648 32.54947464 18.375 35.875 C18.36412354 36.75341553 18.35324707 37.63183105 18.34204102 38.53686523 C18.03910456 50.893243 14.64887634 60.44009974 6.375 69.84765625 C-2.23821675 77.9432518 -13.19567115 80.39368111 -24.6484375 80.27734375 C-34.43579252 79.46743442 -41.85302212 74.05053654 -48.6875 67.375 C-57.87103016 55.70102099 -57.91438446 41.05546842 -57 27 C-55.60250445 16.37951402 -50.29829142 8.20252169 -42 1.625 C-29.44423491 -7.14217833 -13.19694824 -7.84880739 0 0 Z " fill="#E3DAD0" transform="translate(619,224)"/>
<path d="M0 0 C5.94347602 2.56581764 9.40158603 7.13676387 11.98046875 12.94140625 C15.56580038 23.69740115 16.34749852 35.43106574 17.80297852 46.62280273 C18.64500241 52.91424378 19.7579803 59.10170762 21.0625 65.3125 C25.74904122 88.01010565 26.52716099 110.19754052 22.6875 133.125 C22.47472412 134.39947998 22.26194824 135.67395996 22.04272461 136.98706055 C19.89801162 148.90630101 19.89801162 148.90630101 17 154 C13.8125 154.9375 13.8125 154.9375 11 155 C-11.69642905 126.23263028 -13.29550506 90.71969725 -17.52587891 55.6796875 C-17.98808133 52.09250165 -18.53566555 48.5264643 -19.09375 44.953125 C-20.12953415 37.78853027 -20.36717353 30.73166018 -20.375 23.5 C-20.39949219 22.27796875 -20.42398437 21.0559375 -20.44921875 19.796875 C-20.48487696 8.90923452 -20.48487696 8.90923452 -16 4 C-14.9790625 2.824375 -14.9790625 2.824375 -13.9375 1.625 C-9.33917032 -0.91875684 -5.12275212 -0.91965255 0 0 Z " fill="#E2D9CE" transform="translate(326,177)"/>
<path d="M0 0 C0 8.58 0 17.16 0 26 C-8.5 26.75 -8.5 26.75 -11.12695312 26.95605469 C-18.45607789 27.69029611 -24.88914601 29.97353442 -29.8125 35.6875 C-30.35519531 36.28949219 -30.89789062 36.89148438 -31.45703125 37.51171875 C-37.14802246 46.68934255 -36.47410425 56.76930526 -36.51171875 67.16015625 C-36.52858563 68.91850523 -36.54673855 70.6768423 -36.56611633 72.43516541 C-36.61340449 77.03653236 -36.64335037 81.63785101 -36.66955566 86.23937988 C-36.69946868 90.94549088 -36.74596185 95.65143578 -36.79101562 100.35742188 C-36.87680756 109.57154629 -36.9427248 118.78565415 -37 128 C-45.58 128 -54.16 128 -63 128 C-63 86.09 -63 44.18 -63 1 C-54.42 1 -45.84 1 -37 1 C-37 6.61 -37 12.22 -37 18 C-36.34 18 -35.68 18 -35 18 C-34.773125 17.443125 -34.54625 16.88625 -34.3125 16.3125 C-29.90042365 8.53884166 -22.09064759 4.08284067 -14 1 C-10 0 -10 0 0 0 Z " fill="#516567" transform="translate(1205,197)"/>
<path d="M0 0 C2.54647839 3.38923062 3.18401828 5.67315813 3.87109375 9.84375 C3.98646484 10.52832275 4.10183594 11.21289551 4.22070312 11.91821289 C5.2954994 18.70248909 5.88387891 25.5505707 6.36206055 32.40014648 C6.84174163 38.73610796 7.84345441 44.92312977 8.98606873 51.16700745 C10.47164337 59.33954736 11.60980978 67.55416009 12.74609375 75.78125 C13.9360768 84.37198747 15.13144308 92.94324182 16.73901367 101.46826172 C17.46922865 105.47261472 18.0193106 109.49741201 18.55859375 113.53125 C18.68161865 114.43786377 18.80464355 115.34447754 18.93139648 116.27856445 C19.73309831 122.27529412 20.4769647 128.27799585 21.1953125 134.28515625 C21.28230408 135.01120056 21.36929565 135.73724487 21.45892334 136.48529053 C21.89076041 140.09650186 22.31791672 143.70817923 22.73779297 147.32080078 C23.54193188 154.15539765 24.45145166 160.92000139 25.83251953 167.6652832 C26.46254113 171.68681886 26.31256218 175.26924578 23.93359375 178.71875 C19.70731074 181.5865849 15.33581736 182.30277558 10.3359375 182.90625 C9.68339493 182.98746094 9.03085236 183.06867188 8.35853577 183.15234375 C6.28011203 183.41002326 4.20074083 183.6586557 2.12109375 183.90625 C-0.59939951 184.2360458 -3.31939644 184.56970269 -6.0390625 184.90625 C-7.04417625 185.03047585 -7.04417625 185.03047585 -8.06959534 185.1572113 C-12.97659671 185.77453561 -17.8441586 186.53860596 -22.71704102 187.37939453 C-29.04865641 188.45569434 -35.40158146 189.39878125 -41.75390625 190.34375 C-42.86081314 190.50857376 -42.86081314 190.50857376 -43.99008179 190.67672729 C-55.35234874 192.35740261 -66.71396814 193.71128713 -78.14941406 194.80566406 C-88.1814589 195.78297401 -98.13706719 197.13274214 -108.1027832 198.63696289 C-127.12085539 201.42185407 -127.12085539 201.42185407 -133.81640625 196.90625 C-141.03627372 191.19751758 -142.17133199 182.46509095 -143.31640625 173.78125 C-143.43894775 172.8929248 -143.56148926 172.00459961 -143.68774414 171.08935547 C-144.83562045 162.42937223 -145.63546005 153.7376448 -146.43753052 145.04003906 C-147.34227286 135.25627693 -148.45333054 125.52203985 -149.75390625 115.78125 C-151.19944813 104.86210821 -152.56982103 93.93813917 -153.79592896 82.99200439 C-153.97225485 81.42856689 -154.15200106 79.86551019 -154.33566284 78.30291748 C-155.64439298 67.1278239 -156.02513312 56.15513723 -155.81640625 44.90625 C-156.47640625 44.90625 -157.13640625 44.90625 -157.81640625 44.90625 C-158.87372716 29.8352313 -158.87372716 29.8352313 -156.50390625 25.51171875 C-150.74978343 20.43832921 -143.29300803 19.67491912 -135.87890625 19.28125 C-135.19505859 19.24257812 -134.51121094 19.20390625 -133.80664062 19.1640625 C-132.14361112 19.07102588 -130.48004778 18.98761213 -128.81640625 18.90625 C-128.81640625 19.56625 -128.81640625 20.22625 -128.81640625 20.90625 C-129.79480469 21.00421875 -130.77320313 21.1021875 -131.78125 21.203125 C-143.68391454 22.20982128 -143.68391454 22.20982128 -153.81640625 27.90625 C-154.61066124 38.38041829 -153.03019979 48.74500271 -151.62890625 59.09375 C-151.40201558 60.81821347 -151.17562439 62.54274273 -150.94970703 64.26733398 C-149.39210867 76.05996288 -147.66014127 87.82352759 -145.86950684 99.58267212 C-144.39607003 109.29798784 -143.25716403 118.99056799 -142.37890625 128.78125 C-141.32875306 140.33215488 -139.71791145 151.71865326 -137.81640625 163.15625 C-137.62765427 164.30864166 -137.62765427 164.30864166 -137.43508911 165.48431396 C-136.10970412 179.76319838 -136.10970412 179.76319838 -129.8659668 191.63793945 C-121.38395233 196.88678581 -105.0626867 191.46910303 -95.9453125 189.921875 C-89.81686961 188.88523235 -83.68742167 188.08775286 -77.51171875 187.3984375 C-74.71358817 187.0257478 -72.00174534 186.57161864 -69.234375 186.0390625 C-59.88229275 184.3019276 -50.42907721 183.16865405 -41.00390625 181.90625 C-37.14310997 181.38629905 -33.28247976 180.86512091 -29.421875 180.34375 C-28.02965729 180.15587418 -28.02965729 180.15587418 -26.60931396 179.96420288 C-15.12802873 178.41206375 -3.66886781 176.76796338 7.76171875 174.875 C8.54289063 174.74867188 9.3240625 174.62234375 10.12890625 174.4921875 C10.81484863 174.3792334 11.50079102 174.2662793 12.20751953 174.14990234 C14.18359375 173.90625 14.18359375 173.90625 18.18359375 173.90625 C16.22312453 155.6484174 16.22312453 155.6484174 13.44995117 137.50244141 C10.00737875 117.63588409 7.51107935 97.54455832 5.27734375 77.51074219 C3.20503107 58.98217124 0.73689523 40.49132805 -1.86523438 22.03027344 C-2.56965563 16.97513477 -3.09365526 11.94367036 -3.44848633 6.85083008 C-3.5698999 6.20911865 -3.69131348 5.56740723 -3.81640625 4.90625 C-6.22182554 3.70354036 -7.92007216 3.70308337 -10.60546875 3.58984375 C-11.54648437 3.54794922 -12.4875 3.50605469 -13.45703125 3.46289062 C-14.441875 3.42357422 -15.42671875 3.38425781 -16.44140625 3.34375 C-17.43398438 3.30056641 -18.4265625 3.25738281 -19.44921875 3.21289062 C-21.90480463 3.10663931 -24.36049328 3.00460036 -26.81640625 2.90625 C-26.48640625 1.91625 -26.15640625 0.92625 -25.81640625 -0.09375 C-18.21424169 -2.54190469 -6.73696913 -5.00834321 0 0 Z " fill="#5B6D6E" transform="translate(285.81640625,158.09375)"/>
<path d="M0 0 C0.84602783 -0.01764404 1.69205566 -0.03528809 2.5637207 -0.0534668 C7.22448584 -0.048296 10.58681434 0.10371714 14.25 3.3125 C16.39851133 7.1016927 16.57549972 10.63097583 16.625 14.9375 C16.65335937 16.06414062 16.68171875 17.19078125 16.7109375 18.3515625 C16.25 21.3125 16.25 21.3125 14.55126953 22.90014648 C6.10979132 28.08091791 -5.63667537 28.24079123 -15.25 29.375 C-23.47312954 30.36717104 -31.65608892 31.42580404 -39.81933594 32.83276367 C-73.82560694 38.39943499 -73.82560694 38.39943499 -82.75 36.3125 C-86.9960441 31.96501458 -87.92164116 28.38322585 -88.0625 22.4375 C-88.01250632 18.67433967 -87.89351347 16.6114864 -86.25 13.1875 C-79.93032953 8.44774715 -70.4618531 8.53859725 -62.86920166 7.62347412 C-49.0773289 5.95744941 -49.0773289 5.95744941 -35.375 3.6875 C-23.58424694 1.51458176 -11.99867569 0.14303636 0 0 Z " fill="#E1D9CE" transform="translate(273.75,239.6875)"/>
<path d="M0 0 C0.73283203 -0.020625 1.46566406 -0.04125 2.22070312 -0.0625 C6.76727994 -0.09529767 9.80880544 0.25983395 13.3125 3.25 C15.46101133 7.0391927 15.63799972 10.56847583 15.6875 14.875 C15.71585937 16.00164062 15.74421875 17.12828125 15.7734375 18.2890625 C15.3125 21.25 15.3125 21.25 13.75390625 23.01953125 C10.56134871 24.62858025 7.34101881 25.52690115 3.875 26.3125 C3.13419189 26.48386475 2.39338379 26.65522949 1.63012695 26.83178711 C-5.09744473 28.29327243 -11.82318305 28.96719512 -18.67553711 29.53369141 C-24.72239259 30.03791643 -30.6918982 30.75503502 -36.6875 31.6875 C-37.5014624 31.81374756 -38.3154248 31.93999512 -39.15405273 32.07006836 C-40.81282794 32.32902224 -42.47143739 32.58904006 -44.12988281 32.85009766 C-51.96969185 34.07590972 -59.81929669 35.22167716 -67.6875 36.25 C-68.41356445 36.34619629 -69.13962891 36.44239258 -69.88769531 36.54150391 C-71.81765691 36.78469555 -73.75258091 36.9875449 -75.6875 37.1875 C-76.739375 37.29964844 -77.79125 37.41179687 -78.875 37.52734375 C-82.55995029 37.16396671 -84.07810902 35.80858867 -86.6875 33.25 C-89.36855806 28.01555331 -89.38906353 22.00282097 -88.6875 16.25 C-86.81134434 12.71416817 -85.64302432 11.61853157 -81.93139648 10.18701172 C-78.72892278 9.26196513 -75.71608714 8.72705078 -72.41015625 8.3203125 C-71.1888501 8.16667236 -69.96754395 8.01303223 -68.70922852 7.85473633 C-66.7494104 7.61726685 -66.7494104 7.61726685 -64.75 7.375 C-63.38134926 7.20465996 -62.01277936 7.03366926 -60.64428711 6.86206055 C-57.7852957 6.50402584 -54.92597186 6.14882791 -52.06640625 5.79541016 C-45.63042848 4.99719526 -39.19956485 4.15942534 -32.76828003 3.32440186 C-28.41946106 2.76007791 -24.07030511 2.19844038 -19.72045898 1.64208984 C-17.92732544 1.4102801 -16.13483838 1.17319506 -14.34399414 0.92431641 C-9.54748206 0.2695787 -4.83273647 0.03455039 0 0 Z " fill="#E1D8CE" transform="translate(284.6875,298.75)"/>
<path d="M0 0 C1.16047852 -0.01772461 2.32095703 -0.03544922 3.51660156 -0.05371094 C5.15387207 -0.05226074 5.15387207 -0.05226074 6.82421875 -0.05078125 C7.80865967 -0.05376221 8.79310059 -0.05674316 9.80737305 -0.05981445 C12.72714178 0.37412447 13.56058105 0.98807214 15.3125 3.3125 C17.71354348 8.36732839 18.69839038 14.85143195 17.3125 20.3125 C12.58109792 24.66569865 7.32746484 25.43572547 1.125 26.4375 C0.15828369 26.60362793 -0.80843262 26.76975586 -1.80444336 26.94091797 C-9.64597396 28.24559472 -17.50350963 29.13078844 -25.4140625 29.8828125 C-32.13979402 30.53060821 -38.79871657 31.60745145 -45.4453125 32.8125 C-51.96226057 33.97429576 -58.47934533 34.77067055 -65.0625 35.4375 C-65.9191626 35.52515625 -66.7758252 35.6128125 -67.65844727 35.703125 C-79.88469439 36.89230405 -79.88469439 36.89230405 -82.9375 34.6875 C-87.35572884 28.69133229 -87.68356319 21.53395816 -86.6875 14.3125 C-82.23076395 8.64029049 -74.46977675 8.15414758 -67.6875 7.3125 C-65.72210264 7.22271027 -63.75652185 7.13410874 -61.79003906 7.07250977 C-53.85953216 6.80690754 -46.23242084 5.85365866 -38.4375 4.375 C-37.49221436 4.19638428 -36.54692871 4.01776855 -35.57299805 3.83374023 C-31.74420666 3.10280437 -27.91837008 2.35792118 -24.09375 1.60546875 C-16.07618188 0.22620889 -8.12420069 0.07716337 0 0 Z " fill="#DFD7CD" transform="translate(277.6875,269.6875)"/>
<path d="M0 0 C5.94347602 2.56581764 9.40158603 7.13676387 11.98046875 12.94140625 C15.56580038 23.69740115 16.34749852 35.43106574 17.80297852 46.62280273 C18.64500241 52.91424378 19.7579803 59.10170762 21.0625 65.3125 C25.74904122 88.01010565 26.52716099 110.19754052 22.6875 133.125 C22.47472412 134.39947998 22.26194824 135.67395996 22.04272461 136.98706055 C19.89801162 148.90630101 19.89801162 148.90630101 17 154 C13.8125 154.9375 13.8125 154.9375 11 155 C-11.69642905 126.23263028 -13.29550506 90.71969725 -17.52587891 55.6796875 C-17.98808133 52.09250165 -18.53566555 48.5264643 -19.09375 44.953125 C-20.12953415 37.78853027 -20.36717353 30.73166018 -20.375 23.5 C-20.39949219 22.27796875 -20.42398437 21.0559375 -20.44921875 19.796875 C-20.48487696 8.90923452 -20.48487696 8.90923452 -16 4 C-14.9790625 2.824375 -14.9790625 2.824375 -13.9375 1.625 C-9.33917032 -0.91875684 -5.12275212 -0.91965255 0 0 Z M-14 10 C-14.33 10.33 -14.66 10.66 -15 11 C-15.91178179 23.9144175 -14.23174702 36.14800801 -12.01953125 48.84765625 C-10.90401584 55.32048769 -10.18499988 61.80048097 -9.59619141 68.33984375 C-9.29897754 72.29733384 -9.29897754 72.29733384 -8 76 C-7.75810906 77.53754082 -7.56060726 79.0821982 -7.38671875 80.62890625 C-7.27497314 81.57435303 -7.16322754 82.5197998 -7.0480957 83.49389648 C-6.92909912 84.50653564 -6.81010254 85.5191748 -6.6875 86.5625 C-5.45781727 96.5830392 -3.57924858 106.24598888 -1 116 C6.2301709 116.35558218 12.10637271 115.1101585 19 113 C19.24976448 98.50791825 18.65108498 84.21074891 17.45581055 69.76757812 C17.18554426 66.47618229 16.93486465 63.18366676 16.68554688 59.890625 C15.8557806 49.37214335 14.97174608 39.16880666 12 29 C7.83198043 29.44657353 3.86286041 29.97468892 -0.1875 31.0625 C-3.40075859 31.85264555 -5.75132314 32.08416261 -9 32 C-2.39367844 29.8915995 4.17576662 28.23416987 11 27 C8.97670559 16.20173863 8.97670559 16.20173863 3.375 7 C-3.4826515 2.93620652 -8.99671368 3.58953941 -14 10 Z " fill="#596C6D" transform="translate(326,177)"/>
<path d="M0 0 C5.36782845 4.46194717 10.05632341 10.84370917 11.1875 17.875 C11.1875 20.185 11.1875 22.495 11.1875 24.875 C-11.5825 24.875 -34.3525 24.875 -57.8125 24.875 C-56.67977342 13.54773422 -53.8949169 7.05739993 -45.671875 -0.65625 C-32.51992017 -11.04518911 -13.16534365 -9.26612373 0 0 Z " fill="#E3DAD0" transform="translate(1076.8125,225.125)"/>
<path d="M0 0 C1.21236328 0.01353516 1.21236328 0.01353516 2.44921875 0.02734375 C3.37154297 0.04474609 3.37154297 0.04474609 4.3125 0.0625 C4.3125 0.7225 4.3125 1.3825 4.3125 2.0625 C4.93125 2.330625 5.55 2.59875 6.1875 2.875 C8.3125 4.0625 8.3125 4.0625 10.3125 7.0625 C10.3125 8.3825 10.3125 9.7025 10.3125 11.0625 C10.9725 11.0625 11.6325 11.0625 12.3125 11.0625 C12.74427893 17.32329448 12.23989438 20.15325703 8.3125 25.0625 C8.88097656 25.08828125 9.44945312 25.1140625 10.03515625 25.140625 C15.83428032 25.56660406 19.68156264 26.45036886 24.3125 30.0625 C27.40186703 35.02087911 27.98935973 40.35753942 27.3125 46.0625 C23.83568193 49.96914448 18.51985398 50.2910066 13.625 51.1875 C12.33432617 51.44080078 12.33432617 51.44080078 11.01757812 51.69921875 C-8.18557176 55.37487819 -8.18557176 55.37487819 -16.6875 54.0625 C-18.8125 51.6875 -18.8125 51.6875 -19.6875 49.0625 C-20.0175 48.4025 -20.3475 47.7425 -20.6875 47.0625 C-21.28019467 42.53851407 -21.70659327 38.02663478 -19.55859375 33.88671875 C-16.48601918 30.14026359 -13.21480307 27.89497982 -8.6875 26.0625 C-9.43 25.381875 -9.43 25.381875 -10.1875 24.6875 C-11.6875 23.0625 -11.6875 23.0625 -11.6875 21.0625 C-12.3475 21.0625 -13.0075 21.0625 -13.6875 21.0625 C-15.28717314 17.86315372 -15.05110189 14.5426895 -14.6875 11.0625 C-13.07629472 6.87336628 -11.1198836 3.95857366 -7.6875 1.0625 C-4.80538698 0.10179566 -2.98899956 -0.04331883 0 0 Z " fill="#5C6E6F" transform="translate(166.6875,198.9375)"/>
<path d="M0 0 C2.76928415 2.67055744 3.89033928 4.38211855 4.56640625 8.19140625 C4.56511719 9.30386719 4.56382812 10.41632813 4.5625 11.5625 C4.58441406 12.67753906 4.60632813 13.79257813 4.62890625 14.94140625 C4 18 4 18 2.01879883 20.15429688 C-2.0535099 22.64411928 -5.24545748 22.56498744 -9.9296875 22.58984375 C-17.34809927 22.79404881 -24.64047774 23.2919222 -32.0078125 24.19140625 C-32.92173767 24.30173187 -33.83566284 24.4120575 -34.77728271 24.52572632 C-37.56055071 24.86595109 -40.34286331 25.21315271 -43.125 25.5625 C-45.95444445 25.91642314 -48.78407837 26.26802774 -51.61471558 26.61228943 C-53.35184835 26.8235994 -55.08835524 27.04015808 -56.82400513 27.26332092 C-62.5722522 27.96326982 -68.21197975 28.11661337 -74 28 C-76.68219822 22.63560356 -77.3152595 18.98993047 -77 13 C-71.99770171 11.07111378 -67.34693512 10.5076229 -62.0625 10.0625 C-55.10187994 9.39841725 -48.36592591 8.39850227 -41.5234375 6.92578125 C-33.84924988 5.30387898 -26.09684634 4.05218008 -18.36938477 2.71362305 C-17.18916748 2.50648682 -16.0089502 2.29935059 -14.79296875 2.0859375 C-13.7258667 1.9007959 -12.65876465 1.7156543 -11.55932617 1.52490234 C-2.74142581 -0.28359577 -2.74142581 -0.28359577 0 0 Z " fill="#E1D9CE" transform="translate(246,155)"/>
<path d="M0 0 C0.84602783 -0.01764404 1.69205566 -0.03528809 2.5637207 -0.0534668 C7.22448584 -0.048296 10.58681434 0.10371714 14.25 3.3125 C16.39851133 7.1016927 16.57549972 10.63097583 16.625 14.9375 C16.65335937 16.06414062 16.68171875 17.19078125 16.7109375 18.3515625 C16.25 21.3125 16.25 21.3125 14.55126953 22.90014648 C6.10979132 28.08091791 -5.63667537 28.24079123 -15.25 29.375 C-23.47312954 30.36717104 -31.65608892 31.42580404 -39.81933594 32.83276367 C-73.82560694 38.39943499 -73.82560694 38.39943499 -82.75 36.3125 C-86.9960441 31.96501458 -87.92164116 28.38322585 -88.0625 22.4375 C-88.01250632 18.67433967 -87.89351347 16.6114864 -86.25 13.1875 C-79.93032953 8.44774715 -70.4618531 8.53859725 -62.86920166 7.62347412 C-49.0773289 5.95744941 -49.0773289 5.95744941 -35.375 3.6875 C-23.58424694 1.51458176 -11.99867569 0.14303636 0 0 Z M-15.6875 4.5 C-16.9871167 4.72268555 -18.2867334 4.94537109 -19.62573242 5.17480469 C-26.20572231 6.30499392 -32.77315643 7.49631259 -39.3359375 8.72265625 C-41.74459712 9.17031885 -44.1534471 9.61695863 -46.5625 10.0625 C-47.72152832 10.27720947 -48.88055664 10.49191895 -50.07470703 10.71313477 C-57.86031025 12.10594121 -65.42645243 12.8946394 -73.33203125 12.9765625 C-77.39803404 13.37619249 -80.0907087 14.54142175 -83.75 16.3125 C-83.83221346 17.85324116 -83.88973295 19.39530654 -83.9375 20.9375 C-83.97230469 21.79601562 -84.00710937 22.65453125 -84.04296875 23.5390625 C-83.68250655 26.95143801 -82.33211738 29.29425069 -80.75 32.3125 C-69.28925251 32.67714561 -58.38902299 31.57805937 -47.0625 29.9375 C-45.44999487 29.71264286 -43.83736461 29.48868123 -42.22460938 29.265625 C-35.6056956 28.34222701 -29.00052815 27.37694653 -22.4140625 26.2421875 C-15.14395618 24.99897229 -7.82161506 24.24145881 -0.49023438 23.45703125 C0.56744141 23.33714844 1.62511719 23.21726562 2.71484375 23.09375 C3.659646 22.99126953 4.60444824 22.88878906 5.57788086 22.78320312 C8.34908288 22.2950462 10.68194036 21.44648621 13.25 20.3125 C13.30449838 18.58369018 13.34301688 16.85437288 13.375 15.125 C13.39820313 14.16207031 13.42140625 13.19914063 13.4453125 12.20703125 C13.16404329 8.03862156 12.21311369 5.27561369 9.25 2.3125 C0.93639179 1.24073758 -7.52948691 3.0479282 -15.6875 4.5 Z " fill="#617272" transform="translate(273.75,239.6875)"/>
<path d="M0 0 C0.73283203 -0.020625 1.46566406 -0.04125 2.22070312 -0.0625 C6.76727994 -0.09529767 9.80880544 0.25983395 13.3125 3.25 C15.46101133 7.0391927 15.63799972 10.56847583 15.6875 14.875 C15.71585937 16.00164062 15.74421875 17.12828125 15.7734375 18.2890625 C15.3125 21.25 15.3125 21.25 13.75390625 23.01953125 C10.56134871 24.62858025 7.34101881 25.52690115 3.875 26.3125 C3.13419189 26.48386475 2.39338379 26.65522949 1.63012695 26.83178711 C-5.09744473 28.29327243 -11.82318305 28.96719512 -18.67553711 29.53369141 C-24.72239259 30.03791643 -30.6918982 30.75503502 -36.6875 31.6875 C-37.5014624 31.81374756 -38.3154248 31.93999512 -39.15405273 32.07006836 C-40.81282794 32.32902224 -42.47143739 32.58904006 -44.12988281 32.85009766 C-51.96969185 34.07590972 -59.81929669 35.22167716 -67.6875 36.25 C-68.41356445 36.34619629 -69.13962891 36.44239258 -69.88769531 36.54150391 C-71.81765691 36.78469555 -73.75258091 36.9875449 -75.6875 37.1875 C-76.739375 37.29964844 -77.79125 37.41179687 -78.875 37.52734375 C-82.55995029 37.16396671 -84.07810902 35.80858867 -86.6875 33.25 C-89.36855806 28.01555331 -89.38906353 22.00282097 -88.6875 16.25 C-86.81134434 12.71416817 -85.64302432 11.61853157 -81.93139648 10.18701172 C-78.72892278 9.26196513 -75.71608714 8.72705078 -72.41015625 8.3203125 C-71.1888501 8.16667236 -69.96754395 8.01303223 -68.70922852 7.85473633 C-66.7494104 7.61726685 -66.7494104 7.61726685 -64.75 7.375 C-63.38134926 7.20465996 -62.01277936 7.03366926 -60.64428711 6.86206055 C-57.7852957 6.50402584 -54.92597186 6.14882791 -52.06640625 5.79541016 C-45.63042848 4.99719526 -39.19956485 4.15942534 -32.76828003 3.32440186 C-28.41946106 2.76007791 -24.07030511 2.19844038 -19.72045898 1.64208984 C-17.92732544 1.4102801 -16.13483838 1.17319506 -14.34399414 0.92431641 C-9.54748206 0.2695787 -4.83273647 0.03455039 0 0 Z M-19.40063477 4.69726562 C-23.93711041 5.7937299 -28.57489179 6.37365991 -33.1875 7.0625 C-34.83516357 7.31471313 -34.83516357 7.31471313 -36.51611328 7.57202148 C-42.44333335 8.47609712 -48.37380707 9.35218417 -54.31036377 10.19245911 C-57.32214183 10.62017715 -60.33261194 11.05672768 -63.34301758 11.49398804 C-64.81651313 11.70544543 -66.29064231 11.91253584 -67.76538086 12.11514282 C-69.84266006 12.400754 -71.91739088 12.70085787 -73.9921875 13.00390625 C-75.18827637 13.17220947 -76.38436523 13.3405127 -77.61669922 13.51391602 C-80.74148414 14.26294023 -82.38721163 15.03851913 -84.6875 17.25 C-85.28136106 19.31575228 -85.28136106 19.31575228 -85.125 21.5625 C-85.12371094 22.30113281 -85.12242187 23.03976562 -85.12109375 23.80078125 C-84.56183929 26.95981318 -83.15482453 29.41385359 -81.6875 32.25 C-68.92943235 31.59550541 -56.26011551 30.38322549 -43.5625 29 C-42.56101929 28.89150726 -41.55953857 28.78301453 -40.52770996 28.67123413 C-27.61502556 27.26120027 -14.75433991 25.68027317 -1.9375 23.5625 C-0.70241699 23.36043945 0.53266602 23.15837891 1.80517578 22.95019531 C7.61346828 22.25116446 7.61346828 22.25116446 12.3125 19.25 C12.6328522 16.48914938 12.6328522 16.48914938 12.5625 13.375 C12.56765625 12.32570313 12.5728125 11.27640625 12.578125 10.1953125 C12.31569922 7.28547365 11.67696851 5.76959205 10.3125 3.25 C6.66673608 3.19121923 3.02109648 3.1561442 -0.625 3.125 C-1.64658203 3.10824219 -2.66816406 3.09148437 -3.72070312 3.07421875 C-9.18393672 3.03930991 -14.10568245 3.35349564 -19.40063477 4.69726562 Z " fill="#607172" transform="translate(284.6875,298.75)"/>
<path d="M0 0 C4.57165022 2.63804344 8.02503382 6.06258456 10 11 C11.03611615 17.40946267 9.71015111 22.71004261 6 28 C1.12049493 32.64148043 -2.96743897 33.36287198 -9.49609375 33.27734375 C-14.4520522 32.72839983 -17.03144716 29.99404107 -20.375 26.5625 C-22.86557913 21.10238421 -22.73667051 15.90088116 -22 10 C-17.736772 0.65369246 -9.66986164 -1.91118993 0 0 Z " fill="#536768" transform="translate(503,149)"/>
<path d="M0 0 C1.16047852 -0.01772461 2.32095703 -0.03544922 3.51660156 -0.05371094 C5.15387207 -0.05226074 5.15387207 -0.05226074 6.82421875 -0.05078125 C7.80865967 -0.05376221 8.79310059 -0.05674316 9.80737305 -0.05981445 C12.72714178 0.37412447 13.56058105 0.98807214 15.3125 3.3125 C17.71354348 8.36732839 18.69839038 14.85143195 17.3125 20.3125 C12.58109792 24.66569865 7.32746484 25.43572547 1.125 26.4375 C0.15828369 26.60362793 -0.80843262 26.76975586 -1.80444336 26.94091797 C-9.64597396 28.24559472 -17.50350963 29.13078844 -25.4140625 29.8828125 C-32.13979402 30.53060821 -38.79871657 31.60745145 -45.4453125 32.8125 C-51.96226057 33.97429576 -58.47934533 34.77067055 -65.0625 35.4375 C-65.9191626 35.52515625 -66.7758252 35.6128125 -67.65844727 35.703125 C-79.88469439 36.89230405 -79.88469439 36.89230405 -82.9375 34.6875 C-87.35572884 28.69133229 -87.68356319 21.53395816 -86.6875 14.3125 C-82.23076395 8.64029049 -74.46977675 8.15414758 -67.6875 7.3125 C-65.72210264 7.22271027 -63.75652185 7.13410874 -61.79003906 7.07250977 C-53.85953216 6.80690754 -46.23242084 5.85365866 -38.4375 4.375 C-37.49221436 4.19638428 -36.54692871 4.01776855 -35.57299805 3.83374023 C-31.74420666 3.10280437 -27.91837008 2.35792118 -24.09375 1.60546875 C-16.07618188 0.22620889 -8.12420069 0.07716337 0 0 Z M-14.75 4.25 C-15.95849609 4.43240234 -17.16699219 4.61480469 -18.41210938 4.80273438 C-24.63136758 5.70793025 -24.63136758 5.70793025 -30.6875 7.3125 C-33.43754083 7.63707563 -36.18153249 7.92458597 -38.9375 8.1875 C-46.57243275 8.96260874 -54.19640804 9.80694934 -61.8125 10.75 C-62.75899414 10.86005371 -63.70548828 10.97010742 -64.68066406 11.08349609 C-74.35549242 12.00606773 -74.35549242 12.00606773 -82.6875 16.3125 C-82.81328029 17.8920664 -82.86328015 19.47797694 -82.875 21.0625 C-82.88917969 21.92359375 -82.90335938 22.7846875 -82.91796875 23.671875 C-82.66706222 26.54666845 -81.87726237 28.69784436 -80.6875 31.3125 C-63.29822634 31.68248455 -46.81252097 29.74725311 -29.67236328 26.91943359 C-20.10481762 25.34591014 -10.51169136 23.98922197 -0.90087891 22.70751953 C0.21496582 22.55395996 1.33081055 22.40040039 2.48046875 22.2421875 C3.46297607 22.11054199 4.4454834 21.97889648 5.45776367 21.84326172 C8.5345207 21.2712212 11.36858504 20.36461894 14.3125 19.3125 C14.39410748 17.41739301 14.45196459 15.52125496 14.5 13.625 C14.53480469 12.56925781 14.56960938 11.51351563 14.60546875 10.42578125 C14.26674714 6.82629962 13.52302607 5.1557103 11.3125 2.3125 C8.83391172 1.63079187 8.83391172 1.63079187 6.00390625 1.87890625 C4.39926514 1.94682373 4.39926514 1.94682373 2.76220703 2.01611328 C-3.11722347 2.52125331 -8.92320364 3.32526406 -14.75 4.25 Z " fill="#617172" transform="translate(277.6875,269.6875)"/>
<path d="M0 0 C1.21623047 -0.01740234 1.21623047 -0.01740234 2.45703125 -0.03515625 C3.23691406 -0.03128906 4.01679688 -0.02742188 4.8203125 -0.0234375 C5.52687988 -0.02005371 6.23344727 -0.01666992 6.96142578 -0.01318359 C9.47198381 0.49610287 10.32103961 1.36375588 11.875 3.375 C13.47006399 8.41204419 14.57556182 13.07074621 13.875 18.375 C11.51234229 21.5715369 10.02751546 23.12268376 6.109375 23.98046875 C2.81173535 24.38271706 -0.42981165 24.68420232 -3.75 24.8125 C-4.85601562 24.87308594 -5.96203125 24.93367188 -7.1015625 24.99609375 C-10.125 24.375 -10.125 24.375 -12.48828125 21.828125 C-14.37420617 17.84922851 -14.69186764 15.07698268 -14.6875 10.6875 C-14.70941406 9.38425781 -14.73132813 8.08101563 -14.75390625 6.73828125 C-14.125 3.375 -14.125 3.375 -12.16015625 1.44140625 C-8.03545833 -0.00781194 -4.34041856 -0.06270268 0 0 Z " fill="#667576" transform="translate(171.125,317.625)"/>
<path d="M0 0 C9.22090193 -0.24616423 9.22090193 -0.24616423 11.578125 1.5078125 C14.75070288 5.92638631 15.02007618 10.75914716 15.22265625 16.0078125 C14.54859966 19.1496017 13.31675799 20.23997057 10.76171875 22.15625 C7.51953125 22.984375 7.51953125 22.984375 3.88671875 23.40625 C2.69304687 23.55578125 1.499375 23.7053125 0.26953125 23.859375 C-8.6778388 24.61661344 -8.6778388 24.61661344 -10.98828125 22.71875 C-13.55108664 17.46499895 -15.04992179 10.97300723 -14.23828125 5.15625 C-12.20321489 2.14435179 -10.82134915 1.3051184 -7.30078125 0.40625 C-4.87060525 0.19446996 -2.43681701 0.11757863 0 0 Z " fill="#617273" transform="translate(161.23828125,257.84375)"/>
<path d="M0 0 C0.76376953 -0.02900391 1.52753906 -0.05800781 2.31445312 -0.08789062 C6.09122433 -0.13062172 7.94683519 -0.14562421 11.05078125 2.1640625 C14.24117555 6.69821461 14.42971953 13.89237796 13.5625 19.3125 C11.8682776 21.85676478 10.6903385 22.27979713 7.70703125 23.04296875 C1.60022954 23.88059571 -4.27212434 24.55427944 -10.4375 24.3125 C-12.97174437 19.83990116 -13.95038679 16.24396407 -14.3125 11.125 C-14.41304687 9.91457031 -14.51359375 8.70414062 -14.6171875 7.45703125 C-14.4375 4.3125 -14.4375 4.3125 -13.1328125 2.44921875 C-9.09341702 -0.25922384 -4.6739128 0.0588654 0 0 Z " fill="#DCD5CB" transform="translate(166.4375,287.6875)"/>
<path d="M0 0 C16.09447929 -0.82418386 16.09447929 -0.82418386 23 4 C25.67927341 8.01891012 25.15601248 10.24161923 25 15 C21.04187005 15.48085624 17.08346029 15.95937137 13.125 16.4375 C12.01640625 16.57220703 10.9078125 16.70691406 9.765625 16.84570312 C3.18343445 17.63943787 -3.39971473 18.37357971 -10 19 C-10.54781795 15.19909027 -10.78952877 11.77623298 -10 8 C-7.84713809 5.81723723 -5.77065 4.54727551 -3.06640625 3.12109375 C-0.84765436 2.17273676 -0.84765436 2.17273676 0 0 Z " fill="#DED6CC" transform="translate(163,227)"/>
<path d="M0 0 C0.7425 -0.020625 1.485 -0.04125 2.25 -0.0625 C8.62330653 -0.10754104 12.61820681 1.50496244 17.5 5.75 C19.625 8.25 19.625 8.25 19.625 11.25 C18.86582275 11.32516846 18.10664551 11.40033691 17.32446289 11.4777832 C-2.50394137 13.45560156 -2.50394137 13.45560156 -22.15234375 16.69921875 C-24.98054879 17.1825847 -27.51663561 17.36390067 -30.375 17.25 C-29.00818238 11.61187733 -24.85042132 8.55553048 -20.375 5.25 C-13.60458393 1.18041778 -7.88930694 0.05422204 0 0 Z " fill="#DFD7CD" transform="translate(210.375,141.75)"/>
<path d="M0 0 C1.93359375 0.6875 1.93359375 0.6875 4 2 C4.72265625 4.1875 4.72265625 4.1875 5.0625 7 C5.56680575 10.81438531 6.09146507 14.59749728 6.8203125 18.375 C8.48960784 27.17011148 9.45691095 35.04789659 8 44 C7.67 44 7.34 44 7 44 C6.94392578 42.91332031 6.94392578 42.91332031 6.88671875 41.8046875 C6.36138006 33.99144095 6.36138006 33.99144095 3 27 C-16.82388575 20.39203808 -47.23654474 29.63443234 -67.61450195 32.69238281 C-74.7303524 33.74546164 -81.82476922 34.48897807 -89 35 C-89.33 33.68 -89.66 32.36 -90 31 C-88.89096313 30.87939209 -88.89096313 30.87939209 -87.75952148 30.75634766 C-66.10662482 29.32968056 -66.10662482 29.32968056 -45 25 C-43.18645353 24.75133994 -41.36763971 24.54023812 -39.546875 24.3515625 C-37.91528442 24.17657227 -37.91528442 24.17657227 -36.25073242 23.99804688 C-34.51786987 23.81338867 -34.51786987 23.81338867 -32.75 23.625 C-14.93703177 22.63000064 -14.93703177 22.63000064 1 16 C1.64242545 13.439523 1.64242545 13.439523 1.375 10.625 C1.34148437 9.68914062 1.30796875 8.75328125 1.2734375 7.7890625 C1.01332706 5.13593597 0.5769363 2.60094234 0 0 Z " fill="#D7D1C7" transform="translate(293,274)"/>
<path d="M0 0 C0.80263256 3.50756747 1.11043577 6.71731752 1.0625 10.3125 C1.05347656 11.19550781 1.04445312 12.07851563 1.03515625 12.98828125 C1.02355469 13.65214844 1.01195312 14.31601562 1 15 C-2.18824568 16.59412284 -5.62896662 16.10174735 -9.125 16.0625 C-9.87910156 16.05798828 -10.63320312 16.05347656 -11.41015625 16.04882812 C-13.27347127 16.03703499 -15.13674555 16.01909942 -17 16 C-18.54867002 12.56731802 -19.23731123 9.94992634 -19.125 6.1875 C-19.10695312 5.39730469 -19.08890625 4.60710937 -19.0703125 3.79296875 C-19.03550781 2.90544922 -19.03550781 2.90544922 -19 2 C-12.65176798 -0.30844801 -6.70518586 -0.19818283 0 0 Z " fill="#E0D8CD" transform="translate(180,321)"/>
<path d="M0 0 C0.89893758 3.09234528 1.16349234 5.90797357 1.1875 9.125 C1.20167969 9.99382812 1.21585938 10.86265625 1.23046875 11.7578125 C1 14 1 14 -1 16 C-3.74485593 16.14507695 -6.38480543 16.18652423 -9.125 16.125 C-9.87910156 16.11597656 -10.63320312 16.10695313 -11.41015625 16.09765625 C-13.27357254 16.0740687 -15.13682593 16.03819719 -17 16 C-18.83292491 10.96306461 -19.18246409 7.29145847 -19 2 C-12.53205867 0.48766299 -6.64409958 -0.21432579 0 0 Z " fill="#E1D8CE" transform="translate(171,261)"/>
<path d="M0 0 C0.76376953 -0.02900391 1.52753906 -0.05800781 2.31445312 -0.08789062 C6.09122433 -0.13062172 7.94683519 -0.14562421 11.05078125 2.1640625 C14.24117555 6.69821461 14.42971953 13.89237796 13.5625 19.3125 C11.8682776 21.85676478 10.6903385 22.27979713 7.70703125 23.04296875 C1.60022954 23.88059571 -4.27212434 24.55427944 -10.4375 24.3125 C-12.97174437 19.83990116 -13.95038679 16.24396407 -14.3125 11.125 C-14.41304687 9.91457031 -14.51359375 8.70414062 -14.6171875 7.45703125 C-14.4375 4.3125 -14.4375 4.3125 -13.1328125 2.44921875 C-9.09341702 -0.25922384 -4.6739128 0.0588654 0 0 Z M0.51953125 3.49609375 C-1.03701172 3.62177734 -1.03701172 3.62177734 -2.625 3.75 C-3.67042969 3.83121094 -4.71585938 3.91242188 -5.79296875 3.99609375 C-8.41050377 4.15825594 -8.41050377 4.15825594 -10.4375 5.3125 C-10.49187607 6.89544782 -10.53046271 8.47894256 -10.5625 10.0625 C-10.58570313 10.94421875 -10.60890625 11.8259375 -10.6328125 12.734375 C-10.42889502 15.4260858 -9.80301721 17.01154974 -8.4375 19.3125 C-5.83305652 19.36644705 -3.22973002 19.40614469 -0.625 19.4375 C0.48198242 19.46263672 0.48198242 19.46263672 1.61132812 19.48828125 C5.47496426 19.52324628 7.27153668 19.50647555 10.5625 17.3125 C11.00365338 14.75154646 11.00365338 14.75154646 10.875 11.875 C10.86919922 10.42287109 10.86919922 10.42287109 10.86328125 8.94140625 C10.73881999 6.08241183 10.73881999 6.08241183 8.5625 3.3125 C5.84002609 3.05118052 3.24901299 3.33141385 0.51953125 3.49609375 Z " fill="#5E6F70" transform="translate(166.4375,287.6875)"/>
<path d="M0 0 C1.43472656 0.00676758 1.43472656 0.00676758 2.8984375 0.01367188 C5.22402758 0.02529983 7.5494776 0.04163898 9.875 0.0625 C9.875 0.7225 9.875 1.3825 9.875 2.0625 C1.45401027 3.9498173 -6.97821566 4.94551603 -15.54614258 5.86743164 C-17.92261721 6.123397 -20.29824108 6.38632734 -22.67382812 6.65039062 C-34.80460336 7.98613607 -46.90363663 9.31078955 -59.125 9.0625 C-59.125 8.4025 -59.125 7.7425 -59.125 7.0625 C-50.78226322 4.75229056 -42.60384594 3.32930029 -34 2.4375 C-32.89785156 2.31632813 -31.79570312 2.19515625 -30.66015625 2.0703125 C-28.4910276 1.83358672 -26.32126753 1.60256641 -24.15087891 1.37768555 C-22.26145757 1.18087718 -20.37288946 0.97546112 -18.48583984 0.75708008 C-12.30654164 0.0651306 -6.21450317 -0.05673353 0 0 Z " fill="#627273" transform="translate(263.125,204.9375)"/>
<path d="M0 0 C-1.92710706 18.82004556 -1.92710706 18.82004556 -4 28 C-7.27124912 25.23123115 -9.08137391 21.59924189 -11.0625 17.875 C-11.41957031 17.20718506 -11.77664063 16.53937012 -12.14453125 15.85131836 C-14.68102371 10.95875092 -16.22948906 6.48989048 -17 1 C-15.29201415 0.82980924 -13.58358904 0.66402455 -11.875 0.5 C-10.92367188 0.4071875 -9.97234375 0.314375 -8.9921875 0.21875 C-5.98316535 -0.00123073 -3.01587691 -0.03579676 0 0 Z " fill="#E0D8CD" transform="translate(343,294)"/>
<path d="M0 0 C0 0.33 0 0.66 0 1 C4.95 1.33 9.9 1.66 15 2 C15 2.33 15 2.66 15 3 C14.43418213 3.0093457 13.86836426 3.01869141 13.28540039 3.02832031 C-3.33337186 3.36785256 -19.44164529 5.27406474 -35.73828125 8.55053711 C-42.66742495 9.91704899 -49.4465627 10.44950058 -56.5 10.6875 C-57.55058594 10.73455078 -58.60117188 10.78160156 -59.68359375 10.83007812 C-66.54101266 11.08860875 -73.18484186 10.79606055 -80 10 C-80 9.67 -80 9.34 -80 9 C-78.61832642 8.87939209 -78.61832642 8.87939209 -77.20874023 8.75634766 C-73.71386412 8.44962989 -70.21928614 8.13984023 -66.72485352 7.828125 C-65.22691154 7.69510251 -63.72886752 7.56322299 -62.23071289 7.43261719 C-49.31856527 6.3056758 -36.50242418 4.90172198 -23.75390625 2.5078125 C-15.8168084 1.04423417 -8.08818746 -0.31718382 0 0 Z " fill="#D0CBC2" transform="translate(272,267)"/>
<path d="M0 0 C-4.74973652 5.34185696 -12.62646876 5.31186826 -19.375 5.9375 C-25.78825269 6.5795625 -32.09485186 7.48326961 -38.4375 8.625 C-45.01193538 9.79687821 -51.3032987 10.39826197 -58 10 C-57.67 9.01 -57.34 8.02 -57 7 C-48.20277755 3.82404003 -38.29282797 3.02714121 -29.0625 1.8125 C-27.18014648 1.54663086 -27.18014648 1.54663086 -25.25976562 1.27539062 C-16.75746231 0.1397039 -8.57044274 -0.21560343 0 0 Z " fill="#647474" transform="translate(265,222)"/>
<path d="M0 0 C1.93359375 0.6875 1.93359375 0.6875 4 2 C4.72265625 4.1875 4.72265625 4.1875 5.0625 7 C5.56680575 10.81438531 6.09146507 14.59749728 6.8203125 18.375 C8.48960784 27.17011148 9.45691095 35.04789659 8 44 C7.67 44 7.34 44 7 44 C6.96261719 43.27554688 6.92523438 42.55109375 6.88671875 41.8046875 C6.36138006 33.99144095 6.36138006 33.99144095 3 27 C2.01 26.67 1.02 26.34 0 26 C0 25.34 0 24.68 0 24 C-5.28 24 -10.56 24 -16 24 C-15.505 22.515 -15.505 22.515 -15 21 C-12.1640625 20.12109375 -12.1640625 20.12109375 -8.625 19.4375 C-3.52669063 18.44536268 -3.52669063 18.44536268 1 16 C1.40367763 13.50509582 1.40367763 13.50509582 1.25 10.6875 C1.23453125 9.74261719 1.2190625 8.79773438 1.203125 7.82421875 C1.00985142 5.13697257 0.59292973 2.62514858 0 0 Z " fill="#DDD5CB" transform="translate(293,274)"/>
<path d="M0 0 C2.12890625 0.5078125 2.12890625 0.5078125 4.69140625 3.0078125 C5.16578125 3.8328125 5.64015625 4.6578125 6.12890625 5.5078125 C1.97439085 14.81127518 1.97439085 14.81127518 -1.87109375 16.5078125 C-5.33238122 16.43717398 -7.15135372 16.15557853 -9.74609375 13.8203125 C-11.23742616 10.75479588 -11.35341197 8.88404006 -10.87109375 5.5078125 C-8.28969087 0.34500675 -5.41497893 -0.26762664 0 0 Z " fill="#DDD6CB" transform="translate(169.87109375,203.4921875)"/>
<path d="M0 0 C0.88042969 -0.020625 1.76085937 -0.04125 2.66796875 -0.0625 C11.11668491 -0.11347265 11.11668491 -0.11347265 14.875 3.25 C17.02351133 7.0391927 17.20049972 10.56847583 17.25 14.875 C17.27835937 16.00164062 17.30671875 17.12828125 17.3359375 18.2890625 C16.875 21.25 16.875 21.25 15.2265625 23.0390625 C12.47474078 24.45611355 9.88200246 25.2632844 6.875 26 C5.84375 26.26296875 4.8125 26.5259375 3.75 26.796875 C1.00069023 27.23019013 -0.53840535 27.17023079 -3.125 26.25 C-2.135 26.25 -1.145 26.25 -0.125 26.25 C-0.125 25.59 -0.125 24.93 -0.125 24.25 C-1.775 24.25 -3.425 24.25 -5.125 24.25 C-5.125 23.92 -5.125 23.59 -5.125 23.25 C1.145 22.26 7.415 21.27 13.875 20.25 C13.648125 17.836875 13.42125 15.42375 13.1875 12.9375 C13.12860596 12.18170654 13.06971191 11.42591309 13.0090332 10.6472168 C12.80761821 8.50887328 12.80761821 8.50887328 11.875 5.25 C8.28189281 2.46422506 5.62521609 1.88502327 1.13671875 1.95703125 C0.07001953 1.96669922 -0.99667969 1.97636719 -2.09570312 1.98632812 C-3.19849609 2.01146484 -4.30128906 2.03660156 -5.4375 2.0625 C-6.55962891 2.07603516 -7.68175781 2.08957031 -8.83789062 2.10351562 C-11.60075229 2.1387862 -14.36262829 2.18807765 -17.125 2.25 C-17.125 1.92 -17.125 1.59 -17.125 1.25 C-11.39541455 0.28205913 -5.80610717 0.03430492 0 0 Z " fill="#6E7C7C" transform="translate(273.125,239.75)"/>
<path d="M0 0 C-1.49684376 4.43996224 -4.95241455 6.2360866 -8.75 8.5625 C-9.66265625 9.14161133 -9.66265625 9.14161133 -10.59375 9.73242188 C-20.58770762 16 -20.58770762 16 -25 16 C-23.50578579 11.53768683 -20.00438631 9.75894983 -16.1875 7.4375 C-15.26227539 6.85838867 -15.26227539 6.85838867 -14.31835938 6.26757812 C-13.10921604 5.51330912 -11.89558803 4.76617425 -10.67724609 4.02685547 C-9.19958822 3.12219331 -7.74784127 2.17549606 -6.30078125 1.22265625 C-4 0 -4 0 0 0 Z " fill="#5E6F70" transform="translate(270,276)"/>
<path d="M0 0 C2.58656673 0.22288501 5.15952778 0.41314385 7.75 0.5625 C8.44738281 0.60568359 9.14476562 0.64886719 9.86328125 0.69335938 C11.57531922 0.79889596 13.28763561 0.8998991 15 1 C15 1.33 15 1.66 15 2 C14.30551758 2.05534912 13.61103516 2.11069824 12.89550781 2.16772461 C9.68032097 2.42409654 6.46516042 2.68079693 3.25 2.9375 C2.15816406 3.02451172 1.06632812 3.11152344 -0.05859375 3.20117188 C-7.37370149 3.7855148 -14.68735137 4.38565152 -22 5 C-22 4.67 -22 4.34 -22 4 C-25.63 4 -29.26 4 -33 4 C-29.72076878 1.81384585 -28.01739766 1.56070821 -24.16015625 1.11328125 C-22.4421582 0.9131543 -22.4421582 0.9131543 -20.68945312 0.70898438 C-18.89411133 0.51272461 -18.89411133 0.51272461 -17.0625 0.3125 C-15.86947266 0.17005859 -14.67644531 0.02761719 -13.44726562 -0.11914062 C-4.00168659 -1.1863477 -4.00168659 -1.1863477 0 0 Z " fill="#D2CDC3" transform="translate(278,297)"/>
<path d="M0 0 C0.33 0 0.66 0 1 0 C2.65 11.88 4.3 23.76 6 36 C5.34 36 4.68 36 4 36 C4 40.29 4 44.58 4 49 C3.67 49 3.34 49 3 49 C2.9498877 48.22398437 2.89977539 47.44796875 2.84814453 46.6484375 C2.61461847 43.09841768 2.36990207 39.54925244 2.125 36 C2.04636719 34.77925781 1.96773438 33.55851562 1.88671875 32.30078125 C1.44075022 25.95430606 0.74052816 20.11712595 -1 14 C-1.1875 11.0625 -1.1875 11.0625 -1 9 C-0.67 8.67 -0.34 8.34 0 8 C0.07148199 6.64756083 0.08399454 5.29165633 0.0625 3.9375 C0.041875 2.638125 0.02125 1.33875 0 0 Z " fill="#768281" transform="translate(339,197)"/>
<path d="M0 0 C0 0.66 0 1.32 0 2 C-0.97839844 2.09796875 -1.95679688 2.1959375 -2.96484375 2.296875 C-14.86750829 3.30357128 -14.86750829 3.30357128 -25 9 C-25.23192865 10.51469448 -25.41215238 12.03754562 -25.5625 13.5625 C-25.64628906 14.38878906 -25.73007813 15.21507812 -25.81640625 16.06640625 C-25.87699219 16.70449219 -25.93757812 17.34257812 -26 18 C-26.33 18 -26.66 18 -27 18 C-27.33 20.64 -27.66 23.28 -28 26 C-28.33 26 -28.66 26 -29 26 C-30.05732091 10.9289813 -30.05732091 10.9289813 -27.6875 6.60546875 C-20.31216337 0.10266079 -9.37356647 -0.19528263 0 0 Z " fill="#7F8A88" transform="translate(157,177)"/>
<path d="M0 0 C-1.49494847 4.6999459 -5.28821809 6.35886404 -9.3125 8.6875 C-9.97701172 9.09033203 -10.64152344 9.49316406 -11.32617188 9.90820312 C-14.85673572 11.99301679 -17.85308217 13.52675406 -22 14 C-20.50780028 9.47158835 -16.85826961 7.66387516 -13 5.3125 C-12.03707031 4.70825195 -12.03707031 4.70825195 -11.0546875 4.09179688 C-4.50232936 0 -4.50232936 0 0 0 Z " fill="#607172" transform="translate(252,280)"/>
<path d="M0 0 C0 0.33 0 0.66 0 1 C4.95 1.33 9.9 1.66 15 2 C15 2.33 15 2.66 15 3 C14.34515625 3.02505615 13.6903125 3.0501123 13.015625 3.07592773 C10.01026764 3.19292655 7.00514515 3.31517635 4 3.4375 C2.97003906 3.47681641 1.94007813 3.51613281 0.87890625 3.55664062 C-4.80241075 3.79185439 -10.37046268 4.19481377 -16 5 C-16 4.67 -16 4.34 -16 4 C-17.65 3.67 -19.3 3.34 -21 3 C-21 2.67 -21 2.34 -21 2 C-13.94546999 0.79556805 -7.16562789 -0.28100502 0 0 Z " fill="#BFBDB6" transform="translate(272,267)"/>
<path d="M0 0 C-0.33 0.66 -0.66 1.32 -1 2 C-3.4050293 2.59423828 -3.4050293 2.59423828 -6.57421875 3.0703125 C-7.71697266 3.24433594 -8.85972656 3.41835938 -10.03710938 3.59765625 C-11.84405273 3.85869141 -11.84405273 3.85869141 -13.6875 4.125 C-14.87279297 4.30675781 -16.05808594 4.48851562 -17.27929688 4.67578125 C-22.57849347 5.46635124 -27.63202673 6.10343303 -33 6 C-32.67 5.34 -32.34 4.68 -32 4 C-29.81030273 3.40576172 -29.81030273 3.40576172 -26.93359375 2.9296875 C-25.89009766 2.75566406 -24.84660156 2.58164062 -23.77148438 2.40234375 C-22.67126953 2.22832031 -21.57105469 2.05429687 -20.4375 1.875 C-19.36435547 1.69324219 -18.29121094 1.51148438 -17.18554688 1.32421875 C-11.37916844 0.37841553 -5.8813009 -0.21386549 0 0 Z " fill="#DED7CC" transform="translate(257,300)"/>
<path d="M0 0 C0.66 0.33 1.32 0.66 2 1 C2 1.66 2 2.32 2 3 C2.04125 4.03125 2.0825 5.0625 2.125 6.125 C1.98632062 10.42406065 1.15867135 13.87223333 0 18 C-1.6421044 13.08517006 -0.10604364 8.94466568 1 4 C-7.91 4.99 -7.91 4.99 -17 6 C-17 5.01 -17 4.02 -17 3 C-15.53626953 2.80083984 -15.53626953 2.80083984 -14.04296875 2.59765625 C-12.13451172 2.33275391 -12.13451172 2.33275391 -10.1875 2.0625 C-8.29064453 1.80146484 -8.29064453 1.80146484 -6.35546875 1.53515625 C-3.01678297 1.09607545 -3.01678297 1.09607545 0 0 Z " fill="#7C8786" transform="translate(342,290)"/>
<path d="M0 0 C0.88042969 -0.020625 1.76085937 -0.04125 2.66796875 -0.0625 C7.54339746 -0.09191435 10.95880786 -0.00572322 14.875 3.25 C16.41768029 5.98475142 17.00467623 7.45032989 16.5 10.5625 C16.29375 11.119375 16.0875 11.67625 15.875 12.25 C13.875 9.25 13.875 9.25 13.0625 7.25 C11.43698548 4.51229134 9.71048146 3.66885951 6.875 2.25 C4.07849884 1.84161301 4.07849884 1.84161301 1.13671875 1.95703125 C0.07001953 1.96669922 -0.99667969 1.97636719 -2.09570312 1.98632812 C-3.19849609 2.01146484 -4.30128906 2.03660156 -5.4375 2.0625 C-6.55962891 2.07603516 -7.68175781 2.08957031 -8.83789062 2.10351562 C-11.60075229 2.1387862 -14.36262829 2.18807765 -17.125 2.25 C-17.125 1.92 -17.125 1.59 -17.125 1.25 C-11.39541455 0.28205913 -5.80610717 0.03430492 0 0 Z " fill="#73807F" transform="translate(273.125,239.75)"/>
<path d="M0 0 C0.33 0 0.66 0 1 0 C1.50612064 2.8740422 2.00506541 5.74902873 2.5 8.625 C2.64308594 9.43324219 2.78617188 10.24148437 2.93359375 11.07421875 C3.67876251 15.43877864 4.17272306 19.55238129 4 24 C3.34 24 2.68 24 2 24 C2 27.3 2 30.6 2 34 C1.67 34 1.34 34 1 34 C0.26429134 22.64906646 -0.13947228 11.37473908 0 0 Z " fill="#72807F" transform="translate(129,187)"/>
<path d="M0 0 C0.68384766 0.00902344 1.36769531 0.01804687 2.07226562 0.02734375 C3.73583287 0.05061042 5.39921631 0.08646833 7.0625 0.125 C3.15890473 4.02859527 -3.55788542 4.02414216 -8.88671875 4.25 C-11.24069359 4.25 -13.58545933 4.21683673 -15.9375 4.125 C-14.9375 2.125 -14.9375 2.125 -11.87109375 1.0078125 C-7.89487383 -0.03069932 -4.10905745 -0.07272668 0 0 Z " fill="#D4CFC5" transform="translate(250.9375,269.875)"/>
<path d="M0 0 C-6.90832239 3.79215787 -15.15990705 5.53455179 -23 5 C-19.44876024 1.69910874 -15.56447612 1.04129204 -10.9375 0.25 C-10.21755859 0.11207031 -9.49761719 -0.02585938 -8.75585938 -0.16796875 C-5.38983004 -0.77429158 -3.29330907 -1.09776969 0 0 Z " fill="#6E7C7C" transform="translate(338,205)"/>
<path d="M0 0 C-1.77051839 5.31155517 -6.83386978 7.89051867 -11.5625 10.3125 C-14.45582778 11.12856681 -17.00858932 11.13913538 -20 11 C-18.62583286 8.25166571 -17.23528269 8.20285715 -14.375 7.1875 C-10.06908849 5.55273417 -4.17535716 0 0 0 Z " fill="#748180" transform="translate(319,337)"/>
<path d="M0 0 C3.41995566 3.41995566 3.24127275 7.05264964 3.5625 11.6875 C3.64628906 12.86699219 3.73007812 14.04648438 3.81640625 15.26171875 C3.87699219 16.16535156 3.93757813 17.06898438 4 18 C3.01 17.67 2.02 17.34 1 17 C0.05078125 14.8203125 0.05078125 14.8203125 -0.6875 12.125 C-0.93886719 11.24070313 -1.19023437 10.35640625 -1.44921875 9.4453125 C-2 7 -2 7 -2 4 C-1.34 4 -0.68 4 0 4 C0 2.68 0 1.36 0 0 Z " fill="#647474" transform="translate(336,188)"/>
<path d="M0 0 C0.99 0.33 1.98 0.66 3 1 C2.40832031 1.49628906 1.81664062 1.99257812 1.20703125 2.50390625 C-3.63895712 6.67003329 -7.53175088 10.62980781 -11 16 C-11.765625 14.3203125 -11.765625 14.3203125 -12 12 C-10.234375 9.4921875 -10.234375 9.4921875 -7.75 6.875 C-6.94046875 6.00617188 -6.1309375 5.13734375 -5.296875 4.2421875 C-3 2 -3 2 0 0 Z " fill="#677777" transform="translate(165,153)"/>
<path d="M0 0 C1.09731445 0.00676758 1.09731445 0.00676758 2.21679688 0.01367188 C3.99873419 0.02531852 5.78062863 0.04324809 7.5625 0.0625 C7.5625 0.3925 7.5625 0.7225 7.5625 1.0625 C4.50102743 1.56892925 1.43817701 2.06649322 -1.625 2.5625 C-2.48931641 2.70558594 -3.35363281 2.84867188 -4.24414062 2.99609375 C-8.34276577 3.65564262 -12.26976024 4.26959266 -16.4375 4.0625 C-16.1075 3.0725 -15.7775 2.0825 -15.4375 1.0625 C-10.23576905 0.19440561 -5.26771184 -0.06265348 0 0 Z " fill="#5A6C6D" transform="translate(272.4375,240.9375)"/>
<path d="M0 0 C2.33094534 0.3496418 4.66404762 0.68554487 7 1 C7 1.33 7 1.66 7 2 C0.565 2.495 0.565 2.495 -6 3 C-6 6.63 -6 10.26 -6 14 C-6.33 14 -6.66 14 -7 14 C-7.33 9.38 -7.66 4.76 -8 0 C-4.03061259 -0.99234685 -3.56841307 -1.01954659 0 0 Z " fill="#7B8785" transform="translate(260,160)"/>
<path d="M0 0 C1.8253125 0.0309375 1.8253125 0.0309375 3.6875 0.0625 C3.6875 0.3925 3.6875 0.7225 3.6875 1.0625 C1.75583984 1.35253906 1.75583984 1.35253906 -0.21484375 1.6484375 C-1.89330254 1.91098971 -3.57168408 2.17403607 -5.25 2.4375 C-6.52520508 2.62699219 -6.52520508 2.62699219 -7.82617188 2.8203125 C-9.03950195 3.01367188 -9.03950195 3.01367188 -10.27734375 3.2109375 C-11.40064087 3.38375244 -11.40064087 3.38375244 -12.54663086 3.56005859 C-13.42073608 3.80876709 -13.42073608 3.80876709 -14.3125 4.0625 C-14.6425 4.7225 -14.9725 5.3825 -15.3125 6.0625 C-15.8075 5.918125 -16.3025 5.77375 -16.8125 5.625 C-20.29002922 4.84255593 -23.77205123 4.47555236 -27.3125 4.0625 C-27.3125 3.7325 -27.3125 3.4025 -27.3125 3.0625 C-26.07113281 2.92972656 -24.82976562 2.79695313 -23.55078125 2.66015625 C-21.90884139 2.48188849 -20.26691501 2.30349654 -18.625 2.125 C-17.80837891 2.03798828 -16.99175781 1.95097656 -16.15039062 1.86132812 C-10.75718151 1.27178705 -5.42239715 -0.09190504 0 0 Z " fill="#B7B7B0" transform="translate(239.3125,300.9375)"/>
<path d="M0 0 C2.77109307 -0.05392397 5.54113818 -0.09363455 8.3125 -0.125 C9.09818359 -0.14175781 9.88386719 -0.15851563 10.69335938 -0.17578125 C11.45068359 -0.18222656 12.20800781 -0.18867188 12.98828125 -0.1953125 C13.68477783 -0.20578613 14.38127441 -0.21625977 15.09887695 -0.22705078 C17 0 17 0 20 2 C17.11584117 3.44207941 14.58278472 3.09394887 11.375 3.0625 C10.18648438 3.05347656 8.99796875 3.04445313 7.7734375 3.03515625 C6.85820312 3.02355469 5.94296875 3.01195312 5 3 C5 2.67 5 2.34 5 2 C3.35 1.67 1.7 1.34 0 1 C0 0.67 0 0.34 0 0 Z " fill="#7A8684" transform="translate(276,299)"/>
<path d="M0 0 C0.33 0 0.66 0 1 0 C1.66 4.62 2.32 9.24 3 14 C2.34 14 1.68 14 1 14 C1 18.29 1 22.58 1 27 C0.67 27 0.34 27 0 27 C-0.19713345 23.25044125 -0.3810316 19.50034696 -0.5625 15.75 C-0.61857422 14.68652344 -0.67464844 13.62304688 -0.73242188 12.52734375 C-0.78076172 11.50253906 -0.82910156 10.47773438 -0.87890625 9.421875 C-0.9260376 8.47924805 -0.97316895 7.53662109 -1.02172852 6.56542969 C-1.00150258 4.17740544 -0.69460602 2.27325608 0 0 Z " fill="#9DA29D" transform="translate(342,219)"/>
<path d="M0 0 C0.66 0 1.32 0 2 0 C3.69140625 2.23046875 3.69140625 2.23046875 5.5625 5.1875 C6.18253906 6.15042969 6.80257813 7.11335937 7.44140625 8.10546875 C8.91166708 10.83595315 9.59289154 12.949475 10 16 C5.46321158 11.98170169 2.54222705 7.5063556 0 2 C0 1.34 0 0.68 0 0 Z " fill="#717F7E" transform="translate(272,173)"/>
<path d="M0 0 C0.75732422 0.00966797 1.51464844 0.01933594 2.29492188 0.02929688 C3.08060547 0.05443359 3.86628906 0.07957031 4.67578125 0.10546875 C5.87170898 0.12577148 5.87170898 0.12577148 7.09179688 0.14648438 C9.05758092 0.18179786 11.02301707 0.23560428 12.98828125 0.29296875 C9.17212657 2.76342678 5.14083877 2.73128787 0.73828125 2.91796875 C-0.00679688 2.95664062 -0.751875 2.9953125 -1.51953125 3.03515625 C-3.34987115 3.12901983 -5.18076018 3.21206593 -7.01171875 3.29296875 C-4.74810376 0.60821609 -3.50571314 -0.07907624 0 0 Z " fill="#586B6C" transform="translate(272.01171875,299.70703125)"/>
<path d="M0 0 C2.3378739 3.49068758 2.06978883 6.15794277 1.625 10.25 C1.45871094 11.86648438 1.45871094 11.86648438 1.2890625 13.515625 C1.14597656 14.74539063 1.14597656 14.74539063 1 16 C0.67 16 0.34 16 0 16 C-0.04898437 15.25234375 -0.09796875 14.5046875 -0.1484375 13.734375 C-0.22320312 12.74953125 -0.29796875 11.7646875 -0.375 10.75 C-0.44460938 9.77546875 -0.51421875 8.8009375 -0.5859375 7.796875 C-0.99329145 5.04531438 -1.40202644 3.27080453 -3 1 C-6.56206661 0.18129815 -6.56206661 0.18129815 -10 0 C-10 -0.33 -10 -0.66 -10 -1 C-3.34883721 -2.51162791 -3.34883721 -2.51162791 0 0 Z " fill="#6F7D7C" transform="translate(292,272)"/>
<path d="M0 0 C0.33 0 0.66 0 1 0 C2.89231726 7.9446047 3.04474629 14.91027535 2 23 C1.67 23 1.34 23 1 23 C0.93941406 22.26394531 0.87882812 21.52789062 0.81640625 20.76953125 C0.73261719 19.79371094 0.64882813 18.81789063 0.5625 17.8125 C0.48128906 16.84957031 0.40007812 15.88664062 0.31640625 14.89453125 C0.05306359 12.02974074 0.05306359 12.02974074 -0.5625 9.375 C-1.16449882 6.10700642 -0.57301108 3.24706278 0 0 Z " fill="#C0BEB7" transform="translate(299,295)"/>
<path d="M0 0 C-1.41669178 5.19453651 -4.92108191 8.66182883 -9 12 C-9.66 12 -10.32 12 -11 12 C-9.56438314 8.81293058 -7.79733671 6.37830895 -5.5 3.75 C-4.8915625 3.04359375 -4.283125 2.3371875 -3.65625 1.609375 C-2 0 -2 0 0 0 Z " fill="#707E7D" transform="translate(327,339)"/>
<path d="M0 0 C0.7425 0.185625 1.485 0.37125 2.25 0.5625 C2.8275 0.706875 3.405 0.85125 4 1 C-1.53723719 2.96110484 -5.21716577 3.15656685 -11 2 C-11.99 1.34 -12.98 0.68 -14 0 C-9.06396713 -1.12823609 -4.88529888 -1.41831258 0 0 Z " fill="#6F7D7C" transform="translate(292,322)"/>
<path d="M0 0 C3.61773603 1.43315025 4.969107 3.04587964 6.8125 6.4375 C7.25207031 7.21996094 7.69164062 8.00242188 8.14453125 8.80859375 C9 11 9 11 8 14 C7.03576974 12.60823368 6.07888398 11.2113777 5.125 9.8125 C4.59132813 9.03519531 4.05765625 8.25789062 3.5078125 7.45703125 C2.01984561 5.0323391 0.97571922 2.6666501 0 0 Z " fill="#6D7C7B" transform="translate(267,174)"/>
<path d="M0 0 C0 0.33 0 0.66 0 1 C-5.94 1.495 -5.94 1.495 -12 2 C-12 1.67 -12 1.34 -12 1 C-15.63 1 -19.26 1 -23 1 C-16.71785479 -3.18809681 -7.21665635 -1.11025482 0 0 Z " fill="#B2B3AC" transform="translate(268,300)"/>
<path d="M0 0 C0.33 1.98 0.66 3.96 1 6 C0.67 5.34 0.34 4.68 0 4 C-0.66 4 -1.32 4 -2 4 C-2.33 3.34 -2.66 2.68 -3 2 C-7.29 2 -11.58 2 -16 2 C-16 1.67 -16 1.34 -16 1 C-13.8973294 0.63705686 -11.79278943 0.28493028 -9.6875 -0.0625 C-8.51574219 -0.25972656 -7.34398437 -0.45695312 -6.13671875 -0.66015625 C-3 -1 -3 -1 0 0 Z " fill="#818C8A" transform="translate(178,290)"/>
<path d="M0 0 C0.66 0.33 1.32 0.66 2 1 C2.96070434 3.88211302 3.10581883 5.69850044 3.0625 8.6875 C3.05347656 9.49574219 3.04445313 10.30398438 3.03515625 11.13671875 C3.02355469 11.75160156 3.01195312 12.36648438 3 13 C1.02 13.99 1.02 13.99 -1 15 C-0.649375 14.38125 -0.29875 13.7625 0.0625 13.125 C1.41103435 8.62988551 0.65959866 4.59045013 0 0 Z " fill="#5B6D6E" transform="translate(287,248)"/>
<path d="M0 0 C2.64 0 5.28 0 8 0 C5.63613154 3.25031913 2.74303696 3.82258019 -0.96484375 4.765625 C-3.23267118 5.02679515 -4.83560469 4.67788667 -7 4 C-5.02 3.67 -3.04 3.34 -1 3 C-0.67 2.01 -0.34 1.02 0 0 Z " fill="#727F7E" transform="translate(257,222)"/>
<path d="M0 0 C-1.5885342 4.28904235 -4.43127368 6.32345526 -8 9 C-8.66 9 -9.32 9 -10 9 C-8.5124715 4.98367305 -4.56813239 0 0 0 Z " fill="#73807F" transform="translate(158,150)"/>
<path d="M0 0 C1.98 0.99 1.98 0.99 4 2 C4.75 5.625 4.75 5.625 5 9 C4.34 9 3.68 9 3 9 C3 10.65 3 12.3 3 14 C2.67 14 2.34 14 2 14 C1.34 9.38 0.68 4.76 0 0 Z " fill="#C9C5BD" transform="translate(293,274)"/>
<path d="M0 0 C2.8125 -0.1875 2.8125 -0.1875 6 0 C6.99 0.99 7.98 1.98 9 3 C5.37 3.33 1.74 3.66 -2 4 C-1.34 2.68 -0.68 1.36 0 0 Z " fill="#687878" transform="translate(260,301)"/>
<path d="M0 0 C0.33 0 0.66 0 1 0 C1.66 5.28 2.32 10.56 3 16 C2.01 16 1.02 16 0 16 C0 10.72 0 5.44 0 0 Z " fill="#5B6D6E" transform="translate(129,187)"/>
<path d="M0 0 C0 0.66 0 1.32 0 2 C-1.74818591 2.22304441 -3.49870323 2.4278645 -5.25 2.625 C-6.22453125 2.74101562 -7.1990625 2.85703125 -8.203125 2.9765625 C-11.13429393 3.00112537 -12.54528964 2.5312717 -15 1 C-9.92928099 0.28832014 -5.11791642 -0.10662326 0 0 Z " fill="#9BA09C" transform="translate(157,177)"/>
<path d="M0 0 C-0.99 1.485 -0.99 1.485 -2 3 C-4.3828125 3.29296875 -4.3828125 3.29296875 -7.125 3.1875 C-8.03507813 3.16042969 -8.94515625 3.13335937 -9.8828125 3.10546875 C-10.58148438 3.07066406 -11.28015625 3.03585937 -12 3 C-11 1 -11 1 -9.375 0.375 C-6.2339425 -0.12095645 -3.17398169 -0.06103811 0 0 Z " fill="#DBD4CA" transform="translate(247,271)"/>
<path d="M0 0 C0 0.99 0 1.98 0 3 C-3.3 3 -6.6 3 -10 3 C-10 2.34 -10 1.68 -10 1 C-6.52674819 -0.1577506 -3.63932552 -0.06866652 0 0 Z " fill="#687878" transform="translate(214,211)"/>
<path d="M0 0 C6.4 -0.49230769 6.4 -0.49230769 9.4375 2 C10.2109375 2.99 10.2109375 2.99 11 4 C10.01 4.33 9.02 4.66 8 5 C7.34 4.34 6.68 3.68 6 3 C4.01643517 2.28591666 2.01684563 1.61382258 0 1 C0 0.67 0 0.34 0 0 Z " fill="#8B9390" transform="translate(240,153)"/>
<path d="M0 0 C2.5 0.375 2.5 0.375 5.5 3.375 C1.87 3.375 -1.76 3.375 -5.5 3.375 C-2.5 0.375 -2.5 0.375 0 0 Z " fill="#D1CCC2" transform="translate(233.5,271.625)"/>
<path d="M0 0 C-0.8125 1.9375 -0.8125 1.9375 -2 4 C-2.99 4.33 -3.98 4.66 -5 5 C-5 4.34 -5 3.68 -5 3 C-5.66 2.67 -6.32 2.34 -7 2 C-4 0 -4 0 0 0 Z " fill="#768382" transform="translate(270,276)"/>
<path d="M0 0 C1.3921875 0.0928125 1.3921875 0.0928125 2.8125 0.1875 C2.8125 0.8475 2.8125 1.5075 2.8125 2.1875 C-1.6425 2.6825 -1.6425 2.6825 -6.1875 3.1875 C-3.1875 0.1875 -3.1875 0.1875 0 0 Z " fill="#55686A" transform="translate(293.1875,319.8125)"/>
<path d="M0 0 C2.96175123 0.61277612 4.38058783 1.25372522 7 3 C3.0186217 4.3271261 -0.85045227 4.06915913 -5 4 C-5 3.67 -5 3.34 -5 3 C-3.02 2.67 -1.04 2.34 1 2 C0.67 1.34 0.34 0.68 0 0 Z " fill="#AFB1AA" transform="translate(225,273)"/>
<path d="M0 0 C1.22589844 0.01353516 1.22589844 0.01353516 2.4765625 0.02734375 C3.41628906 0.04474609 3.41628906 0.04474609 4.375 0.0625 C1.36153684 1.6269362 -1.2145416 2.70350438 -4.625 3.0625 C-5.285 2.4025 -5.945 1.7425 -6.625 1.0625 C-4.21954362 -0.14022819 -2.67503047 -0.03821472 0 0 Z " fill="#768382" transform="translate(141.625,178.9375)"/>
<path d="M0 0 C0.33 0 0.66 0 1 0 C1.33 2.97 1.66 5.94 2 9 C1.01 9.33 0.02 9.66 -1 10 C-2.31223496 6.06329512 -1.24296256 3.87511856 0 0 Z " fill="#748180" transform="translate(297,312)"/>
<path d="M0 0 C1.32 0.66 2.64 1.32 4 2 C3.01 2.66 2.02 3.32 1 4 C1 4.99 1 5.98 1 7 C0.34 7 -0.32 7 -1 7 C-1 5.68 -1 4.36 -1 3 C-1.66 2.67 -2.32 2.34 -3 2 C-2.01 1.34 -1.02 0.68 0 0 Z " fill="#BAB9B2" transform="translate(245,286)"/>
<path d="M0 0 C0.99 0 1.98 0 3 0 C4.75 2.3125 4.75 2.3125 6 5 C5.67 5.99 5.34 6.98 5 8 C2.98863724 5.44008376 1.37154504 2.95409701 0 0 Z " fill="#CAC7BE" transform="translate(271,177)"/>
<path d="M0 0 C0.66 0.99 1.32 1.98 2 3 C0.35 4.65 -1.3 6.3 -3 8 C-2.45276317 4.62537285 -1.9451 2.91765 0 0 Z " fill="#7E8987" transform="translate(156,161)"/>
</svg>
